<svg height="897.389" viewBox="0 0 871.654 897.389" width="871.654"
     xmlns="http://www.w3.org/2000/svg">
  <defs>
    <linearGradient gradientUnits="objectBoundingBox" id="linear-gradient" x1="0.5" x2="0.5" y2="1">
      <stop offset="0" stop-color="#33c8c1"/>
      <stop offset="1" stop-color="#119bd2"/>
    </linearGradient>
  </defs>
  <g data-name="Group 109" id="Group_109" transform="translate(1933.996 3219.25) rotate(180)">
    <path d="M1401.014,2066.862S1306.2,2298.4,976,2224.3s-471.11,172.11-441.91,381.669,109.33,282.112,352.12,174.071,414.688-54.082,514.8,184.208C1403.224,2965.938,1401.014,2066.862,1401.014,2066.862Z" data-name="Path 187"
          fill="url(#linear-gradient)"
          id="Path_187" opacity="0.03" transform="translate(532 255)"/>
    <path d="M1401.014,2066.862S1306.2,2298.4,976,2224.3s-471.11,172.11-441.91,381.669,109.33,282.112,352.12,174.071,414.688-54.082,514.8,184.208C1403.224,2965.938,1401.014,2066.862,1401.014,2066.862Z" data-name="Path 197"
          fill="url(#linear-gradient)"
          id="Path_197" opacity="0.03" transform="translate(532 255)"/>
  </g>
</svg>
