<svg height="30.566" viewBox="0 0 111.196 30.566" width="111.196"
     xmlns="http://www.w3.org/2000/svg">
  <defs>
    <linearGradient gradientUnits="objectBoundingBox" id="linear-gradient" x1="0.5" x2="1.275" y2="0.725">
      <stop offset="0" stop-color="#fe8464"/>
      <stop offset="1" stop-color="#fe6e9a"/>
    </linearGradient>
  </defs>
  <g data-name="Group 2" id="Group_2" transform="translate(-372.804 -44.291)">
    <text fill="#fff" font-family="Helvetica-Bold, Helvetica" font-size="24" font-weight="700" id="BASIC"
          transform="translate(409 68)">
      <tspan x="0" y="0">BASIC</tspan>
    </text>
    <path d="M9.126,19.253h0a8.835,8.835,0,0,1-6.453-2.82A9.835,9.835,0,0,1,0,9.626,9.835,9.835,0,0,1,2.673,2.82,8.835,8.835,0,0,1,9.126,0V19.252Z" data-name="Subtraction 1"
          fill="url(#linear-gradient)"
          id="Subtraction_1" transform="translate(382.43 45.489) rotate(30)"/>
    <path d="M13.694,0h0A13.694,13.694,0,0,0,4.011,23.377a13.6,13.6,0,0,0,9.683,4.011V0Z" data-name="Subtraction 2"
          fill="#fff"
          id="Subtraction_2" transform="translate(395.769 74.857) rotate(-150)"/>
  </g>
</svg>
